<?xml version="1.0" standalone="no"?>
<!DOCTYPE svg PUBLIC "-//W3C//DTD SVG 1.1//EN" "http://www.w3.org/Graphics/SVG/1.1/DTD/svg11.dtd">
<svg xmlns:dc="http://purl.org/dc/elements/1.1/" xmlns:cc="http://creativecommons.org/ns#"
     xmlns:rdf="http://www.w3.org/1999/02/22-rdf-syntax-ns#"
     xmlns="http://www.w3.org/2000/svg" viewBox="0 0 746.38666 739.61334" height="739.6133422851562"
     width="746.3866577148438" xml:space="preserve" id="svg2" version="1.1"><metadata id="metadata8"><rdf:RDF><cc:Work rdf:about=""><dc:format>image/svg+xml</dc:format><dc:type
        rdf:resource="https://purl.org/dc/dcmitype/StillImage"/></cc:Work></rdf:RDF></metadata>
    <defs id="defs6"><clipPath id="clipPath22" clipPathUnits="userSpaceOnUse"><path id="path20" d="m 5210,2999.58 -1792.59,736.39 c -18.8,8.34 -30.67,27.25 -30,47.8 l 35.49,696.7 c 0.71,19.52 16.88,34.89 36.41,34.6 h 1120 c 0,0 34.6,0 3.1,14.4 l -1430.2,652.7 c -19.69,8.24 -42.19,6.14 -60,-5.6 l -906.5,-641.4 c 0,0 -28.4,-20 6.3,-20 h 627.19 c 19.66,0.09 36.15,-14.83 38.01,-34.4 l 48.1,-502.9 c 0,0 3.3,-34.5 -28.7,-21.1 l -882.3,368.4 c -18.03,7.71 -38.93,-0.02 -47.6,-17.6 L 888.809,2204.67 c -8.922,-17.27 -2.329,-38.5 14.8,-47.7 L 3196.11,890.57 c 0,0 30,-16.8 32.29,17.801 0,0 -1.89,-34.601 126.11,2286.099 0,0 1.9,34.6 33.3,20 458,-213.69 570,-685.4 588,-973.4 27.3,-448.3 -243.8,-1456 -871,-1681.699 -21.53,-7.133 -44.35,-9.59 -66.91,-7.203 C 1681.51,732.969 440.008,1529.67 599.008,2422.97 c 190,1066.1 763.902,2541.9 763.902,2541.9 0,0 12.5,32.3 -22.11,32.3 H 34.707 C 15.9336,4997.56 0.398438,4982.66 0.0078125,4963.89 0,4963.41 0,4962.95 0.0078125,4962.47 V 1494.07 C 0.78125,1472.56 11.3086,1452.57 28.6094,1439.77 722.309,964.07 1709.51,363.07 2368.61,12.3711 c 20.15,-9.88282 42.65,-13.98048 65,-11.800787 C 4310,247.168 5111.7,2563.37 5231.51,2953.27 c 5.81,18.78 -3.7,38.88 -21.91,46.31 M 2955.51,2778.37 c -8.6,-405.89 -144.5,-1161.2 -451.5,-1074.69 -345.1,97.5 -884.8,374.39 -1072.4,930.9 -6.22,21.09 -4.55,43.74 4.7,63.7 309.3,607.09 973.7,791.19 1261.4,758.89 176.6,-20 265.8,-304.2 257.8,-678.6 m -686.2,306.4 c -255.49,0 -462.6,-207.11 -462.6,-462.6 0,-255.49 207.11,-462.6 462.6,-462.6 255.48,0 462.6,207.11 462.6,462.6 0,0.04 0,0.07 0,0.11 -0.5,255.26 -207.34,462.05 -462.6,462.49"/></clipPath></defs>
    <g transform="matrix(1.3333333,0,0,-1.3333333,0,739.61333)" id="g10"><g transform="scale(0.1)" id="g12"><path id="path14" style="fill:none;fill-opacity:1;fill-rule:nonzero;stroke:none" d="m 5574.65,3359.57 -1792.59,736.4 c -18.8,8.34 -30.67,27.25 -30,47.8 l 35.49,696.7 c 0.71,19.51 16.88,34.89 36.41,34.6 h 1120 c 0,0 34.6,0 3.1,14.4 l -1430.21,652.7 c -19.68,8.24 -42.18,6.14 -60,-5.6 l -906.49,-641.4 c 0,0 -28.41,-20 6.29,-20 h 627.2 c 19.66,0.09 36.14,-14.83 38,-34.4 l 48.11,-502.9 c 0,0 3.3,-34.5 -28.71,-21.1 l -882.3,368.4 c -18.02,7.71 -38.92,-0.02 -47.59,-17.6 l -1057.9,-2102.9 c -8.92,-17.27 -2.33,-38.5 14.8,-47.7 l 2292.5,-1266.4 c 0,0 30,-16.8 32.29,17.8 0,0 -1.89,-34.6 126.1,2286.1 0,0 1.9,34.6 33.31,20 457.99,-213.7 570,-685.4 587.99,-973.4 27.31,-448.3 -243.8,-1456 -870.99,-1681.699 -21.54,-7.133 -44.35,-9.59 -66.91,-7.203 C 2046.16,1092.97 804.652,1889.67 963.656,2782.97 c 190.004,1066.1 763.894,2541.9 763.894,2541.9 0,0 12.5,32.3 -22.1,32.3 H 399.355 c -18.777,0.39 -34.312,-14.51 -34.703,-33.28 -0.007,-0.48 -0.007,-0.94 0,-1.42 v -3468.4 c 0.774,-21.51 11.297,-41.5 28.606,-54.3 693.692,-475.7 1680.892,-1076.7 2340.002,-1427.399 20.14,-9.883 42.65,-13.98 65,-11.801 1876.39,246.598 2678.09,2562.8 2797.9,2952.7 5.81,18.78 -3.7,38.88 -21.91,46.3 m -2254.1,-221.2 c -8.59,-405.89 -144.49,-1161.2 -451.49,-1074.69 -345.11,97.5 -884.8,374.39 -1072.41,930.9 -6.21,21.09 -4.54,43.74 4.71,63.7 309.29,607.09 973.69,791.19 1261.4,758.89 176.6,-20 265.8,-304.2 257.79,-678.6 m -686.2,306.4 c -255.48,0 -462.6,-207.11 -462.6,-462.6 0,-255.49 207.12,-462.6 462.6,-462.6 255.49,0 462.61,207.11 462.61,462.6 0,0.04 0,0.07 0,0.11 -0.5,255.26 -207.34,462.05 -462.61,462.49"/><g
            id="g16"><g clip-path="url(#clipPath22)" id="g18"><path id="path24" style="fill:#efef2c;fill-opacity:1;fill-rule:nonzero;stroke:none" d="M 2263.51,2624.98 12.7109,5134.97 c 636.4961,575.4 1394.3991,867.5 2250.7991,867.5 V 2624.98"/><path
            id="path26" style="fill:#79cb45;fill-opacity:1;fill-rule:nonzero;stroke:none"
            d="M 2263.51,2624.98 -457.793,4609.97 c 137.684,191.02 295.23,366.91 470,524.7 l 2250.803,-2510 0.5,0.31"/><path
            id="path28" style="fill:#49bd50;fill-opacity:1;fill-rule:nonzero;stroke:none"
            d="m 2263.51,2624.98 -3277.5,759.99 c 106.998,465.2 276.701,839 556.197,1225.3 l 2721.303,-1985 v -0.29"/><path
            id="path30" style="fill:#44bd74;fill-opacity:1;fill-rule:nonzero;stroke:none"
            d="M 2263.51,2624.98 -953.195,1637.17 c -180.895,593.9 -199.995,1141.9 -60.795,1747.1 l 3277.5,-760 v 0.71"/><path
            id="path32" style="fill:#3db6a0;fill-opacity:1;fill-rule:nonzero;stroke:none"
            d="M 2263.51,2624.98 -649.992,936.371 c -141.703,247.099 -220,428.299 -303.203,700.799 l 3216.705,987.41 v 0.4"/><path
            id="path34" style="fill:#4fade5;fill-opacity:1;fill-rule:nonzero;stroke:none"
            d="M 2263.51,2624.98 -236.496,364.98 C -394.129,540.301 -532.73,731.828 -649.992,936.371 L 2263.51,2624.98"/><path
            id="path36" style="fill:#3572c1;fill-opacity:1;fill-rule:nonzero;stroke:none"
            d="M 2263.51,2624.98 949.207,-483.73 C 467.008,-278.23 114.305,-25.7305 -236.191,365.168 l 2500.001,2260.002 -0.3,-0.19"/><path
            id="path38" style="fill:#242c5d;fill-opacity:1;fill-rule:nonzero;stroke:none"
            d="m 2263.51,2624.98 -641.8,-3315.21 c -230.85,44.82 -456.29,114.031 -672.503,206.5 L 2263.51,2624.98"/><path
            id="path40" style="fill:#862796;fill-opacity:1;fill-rule:nonzero;stroke:none"
            d="m 2263.51,2624.98 1474.6,-3035.398 c -684.6,-335.211 -1368.7,-425.711 -2116.4,-280 l 641.8,3315.188 v 0.21"/><path
            id="path42" style="fill:#971162;fill-opacity:1;fill-rule:nonzero;stroke:none"
            d="M 2263.51,2624.98 4802.21,409.371 c -312,-359.9999 -636.6,-610.5 -1064.1,-820 L 2263.51,2624.98"/><path
            id="path44" style="fill:#ed1682;fill-opacity:1;fill-rule:nonzero;stroke:none"
            d="M 2263.51,2624.98 5312.1,1197.17 C 5182,910.648 5010.13,645 4802.1,408.871 L 2263.51,2624.98"/><path
            id="path46" style="fill:#d51362;fill-opacity:1;fill-rule:nonzero;stroke:none"
            d="m 2263.51,2624.98 3345.4,-353.01 c -37.54,-372.45 -137.9,-735.86 -296.81,-1074.8 L 2263.51,2624.98"/><path
            id="path48" style="fill:#c32437;fill-opacity:1;fill-rule:nonzero;stroke:none"
            d="M 2263.51,2624.98 4840,4795.77 c 611.41,-731.6 867.61,-1572.86 768.61,-2523.8 l -3345.4,353.01 h 0.3"/><path
            id="path50" style="fill:#ee262d;fill-opacity:1;fill-rule:nonzero;stroke:none"
            d="M 2263.51,2624.98 4380,5249.47 c 168.98,-134.51 323.18,-286.6 460,-453.7 L 2263.51,2624.98"/><path
            id="path52" style="fill:#f14e2d;fill-opacity:1;fill-rule:nonzero;stroke:none"
            d="M 2263.51,2624.98 2790,5960.57 c 611.11,-97.19 1110,-320 1590.71,-711.1 L 2263.51,2624.98"/><path
            id="path54" style="fill:#f68723;fill-opacity:1;fill-rule:nonzero;stroke:none"
            d="m 2263.51,2624.98 v 3377.19 c 176.36,1.03 352.49,-12.89 526.49,-41.6 L 2263.51,2624.98"/></g></g></g></g></svg>